<svg width="32" height="32" viewBox="0 0 32 32" fill="none">
  <path
    d="M16.3333 8.5C16.3333 12.6421 12.9754 16 8.83325 16H1.33325V8.5C1.33325 4.35786 4.69111 1 8.83325 1C12.9754 1 16.3333 4.35786 16.3333 8.5Z"
    fill="currentColor"></path>
  <path
    d="M16.3333 23.5C16.3333 19.3579 19.6911 16 23.8333 16H31.3333V23.5C31.3333 27.6421 27.9754 31 23.8333 31C19.6911 31 16.3333 27.6421 16.3333 23.5Z"
    fill="currentColor"></path>
  <path
    d="M1.33325 23.5C1.33325 27.6421 4.69111 31 8.83325 31H16.3333V23.5C16.3333 19.3579 12.9754 16 8.83325 16C4.69111 16 1.33325 19.3579 1.33325 23.5Z"
    fill="currentColor"></path>
  <path
    d="M31.3333 8.5C31.3333 4.35786 27.9754 1 23.8333 1H16.3333V8.5C16.3333 12.6421 19.6911 16 23.8333 16C27.9754 16 31.3333 12.6421 31.3333 8.5Z"
    fill="currentColor"></path>
</svg>